<?xml version="1.0" standalone="no"?>
<!DOCTYPE svg PUBLIC "-//W3C//DTD SVG 20010904//EN"
 "http://www.w3.org/TR/2001/REC-SVG-20010904/DTD/svg10.dtd">
<svg version="1.0" xmlns="http://www.w3.org/2000/svg"
 width="865.000000pt" height="865.000000pt" viewBox="0 0 865.000000 865.000000"
 preserveAspectRatio="xMidYMid meet">
<metadata>
Created by potrace 1.14, written by Peter Selinger 2001-2017
</metadata>
<g transform="translate(0.000000,865.000000) scale(0.100000,-0.100000)"
fill="#000000" stroke="none">
<path d="M0 4325 l0 -4325 4325 0 4325 0 0 4325 0 4325 -4325 0 -4325 0 0
-4325z m3865 2605 c402 -39 747 -205 1020 -493 285 -299 436 -678 437 -1097 1
-409 -148 -792 -421 -1082 l-58 -62 -104 100 c-57 55 -137 131 -176 169 -40
37 -73 73 -73 79 0 6 21 31 46 56 59 58 144 186 190 285 82 178 113 407 80
603 -72 427 -370 754 -793 870 l-98 27 -1127 3 -1128 3 0 268 c0 147 3 271 7
274 11 12 2077 8 2198 -3z m3235 -2704 c0 -1920 -3 -2697 -11 -2702 -6 -3 -50
31 -98 77 l-88 84 -2 2518 -1 2517 -948 0 -947 0 -135 96 c-74 53 -137 98
-139 100 -2 2 530 4 1182 4 l1187 0 0 -2694z m-5240 -336 l0 -2190 1702 0
1703 0 102 -102 c57 -57 103 -106 103 -110 0 -5 -856 -7 -1902 -6 l-1903 3 -3
2285 c-1 1257 0 2291 3 2298 3 8 33 12 100 12 l95 0 0 -2190z m4778 -2369
c-13 -2 -122 -1 -243 2 -240 5 -302 16 -445 76 -180 75 -130 29 -1480 1377
-690 690 -1259 1254 -1263 1254 -4 0 -7 -385 -7 -855 l0 -855 -250 0 -250 0 0
1482 0 1483 1980 -1980 c1639 -1639 1976 -1981 1958 -1984z"/>
</g>
</svg>
